# Blender 3.6.8
# www.blender.org
mtllib Coins.mtl
o Cylinder
v -0.356840 0.000000 -2.613884
v 0.356840 -0.000000 -2.613884
v -0.356840 -0.509944 -2.563659
v 0.356840 -0.509944 -2.563659
v -0.356840 -1.000290 -2.414914
v 0.356840 -1.000290 -2.414914
v -0.356840 -1.452196 -2.173365
v 0.356840 -1.452196 -2.173365
v -0.356840 -1.848295 -1.848295
v 0.356840 -1.848295 -1.848295
v -0.356840 -2.173365 -1.452196
v 0.356840 -2.173365 -1.452196
v -0.356840 -2.414914 -1.000290
v 0.356840 -2.414914 -1.000290
v -0.356840 -2.563659 -0.509944
v 0.356840 -2.563659 -0.509944
v -0.356840 -2.613884 0.000000
v 0.356840 -2.613884 0.000000
v -0.356840 -2.563659 0.509944
v 0.356840 -2.563659 0.509944
v -0.356840 -2.414914 1.000290
v 0.356840 -2.414914 1.000290
v -0.356840 -2.173365 1.452196
v 0.356840 -2.173365 1.452196
v -0.356840 -1.848295 1.848295
v 0.356840 -1.848295 1.848295
v -0.356840 -1.452196 2.173365
v 0.356840 -1.452196 2.173365
v -0.356840 -1.000290 2.414914
v 0.356840 -1.000290 2.414914
v -0.356840 -0.509944 2.563659
v 0.356840 -0.509944 2.563659
v -0.356840 0.000000 2.613884
v 0.356840 -0.000000 2.613884
v -0.356840 0.509944 2.563659
v 0.356840 0.509944 2.563659
v -0.356840 1.000290 2.414914
v 0.356840 1.000290 2.414914
v -0.356840 1.452196 2.173365
v 0.356840 1.452196 2.173365
v -0.356840 1.848295 1.848295
v 0.356840 1.848295 1.848295
v -0.356840 2.173365 1.452196
v 0.356840 2.173365 1.452196
v -0.356840 2.414914 1.000290
v 0.356840 2.414914 1.000290
v -0.356840 2.563659 0.509944
v 0.356840 2.563659 0.509944
v -0.356840 2.613884 0.000000
v 0.356840 2.613884 0.000000
v -0.356840 2.563659 -0.509944
v 0.356840 2.563659 -0.509944
v -0.356840 2.414914 -1.000290
v 0.356840 2.414914 -1.000290
v -0.356840 2.173365 -1.452196
v 0.356840 2.173365 -1.452196
v -0.356840 1.848295 -1.848295
v 0.356840 1.848295 -1.848295
v -0.356840 1.452196 -2.173365
v 0.356840 1.452196 -2.173365
v -0.356840 1.000290 -2.414914
v 0.356840 1.000290 -2.414914
v -0.356840 0.509944 -2.563659
v 0.356840 0.509944 -2.563659
v 0.356840 -0.469541 -2.360541
v 0.356840 -0.000000 -2.406786
v 0.356840 -0.921037 -2.223581
v 0.356840 -1.337139 -2.001170
v 0.356840 -1.701855 -1.701855
v 0.356840 -2.001170 -1.337139
v 0.356840 -2.223581 -0.921037
v 0.356840 -2.360541 -0.469541
v 0.356840 -2.406786 -0.000000
v 0.356840 -2.360541 0.469541
v 0.356840 -2.223581 0.921037
v 0.356840 -2.001170 1.337139
v 0.356840 -1.701855 1.701855
v 0.356840 -1.337139 2.001170
v 0.356840 -0.921037 2.223581
v 0.356840 -0.469541 2.360541
v 0.356840 -0.000000 2.406786
v 0.356840 0.469541 2.360541
v 0.356840 0.921037 2.223581
v 0.356840 1.337139 2.001170
v 0.356840 1.701855 1.701855
v 0.356840 2.001170 1.337139
v 0.356840 2.223581 0.921037
v 0.356840 2.360541 0.469541
v 0.356840 2.406786 -0.000000
v 0.356840 2.360541 -0.469541
v 0.356840 2.223581 -0.921037
v 0.356840 2.001170 -1.337139
v 0.356840 1.701855 -1.701855
v 0.356840 1.337139 -2.001170
v 0.356840 0.921037 -2.223581
v 0.356840 0.469541 -2.360541
v -0.356840 0.000000 -2.338168
v -0.356840 -0.456154 -2.293241
v -0.356840 -0.894778 -2.160186
v -0.356840 -1.299017 -1.944116
v -0.356840 -1.653335 -1.653335
v -0.356840 -1.944116 -1.299017
v -0.356840 -2.160186 -0.894778
v -0.356840 -2.293241 -0.456154
v -0.356840 -2.338168 -0.000000
v -0.356840 -2.293241 0.456154
v -0.356840 -2.160186 0.894778
v -0.356840 -1.944116 1.299017
v -0.356840 -1.653335 1.653335
v -0.356840 -1.299017 1.944116
v -0.356840 -0.894778 2.160186
v -0.356840 -0.456154 2.293241
v -0.356840 0.000000 2.338168
v -0.356840 0.456154 2.293241
v -0.356840 0.894778 2.160186
v -0.356840 1.299017 1.944116
v -0.356840 1.653335 1.653335
v -0.356840 1.944116 1.299017
v -0.356840 2.160186 0.894778
v -0.356840 2.293241 0.456154
v -0.356840 2.338168 -0.000000
v -0.356840 2.293241 -0.456154
v -0.356840 2.160186 -0.894778
v -0.356840 1.944116 -1.299017
v -0.356840 1.653335 -1.653335
v -0.356840 1.299017 -1.944116
v -0.356840 0.894778 -2.160186
v -0.356840 0.456154 -2.293241
v 0.113923 -0.469541 -2.360541
v 0.113923 -0.000000 -2.406786
v 0.113923 -0.921037 -2.223581
v 0.113923 -1.337139 -2.001170
v 0.113923 -1.701855 -1.701855
v 0.113923 -2.001170 -1.337139
v 0.113923 -2.223581 -0.921037
v 0.113923 -2.360541 -0.469541
v 0.113923 -2.406786 -0.000000
v 0.113923 -2.360541 0.469541
v 0.113923 -2.223581 0.921037
v 0.113923 -2.001170 1.337139
v 0.113923 -1.701855 1.701855
v 0.113923 -1.337139 2.001170
v 0.113923 -0.921037 2.223581
v 0.113923 -0.469541 2.360541
v 0.113923 -0.000000 2.406786
v 0.113923 0.469541 2.360541
v 0.113923 0.921037 2.223581
v 0.113923 1.337139 2.001170
v 0.113924 1.701855 1.701855
v 0.113924 2.001170 1.337139
v 0.113924 2.223581 0.921037
v 0.113924 2.360541 0.469541
v 0.113924 2.406786 -0.000000
v 0.113924 2.360541 -0.469541
v 0.113924 2.223581 -0.921037
v 0.113924 2.001170 -1.337139
v 0.113924 1.701855 -1.701855
v 0.113923 1.337139 -2.001170
v 0.113923 0.921037 -2.223581
v 0.113923 0.469541 -2.360541
v -0.114523 0.000000 -2.338168
v -0.114523 -0.456154 -2.293241
v -0.114523 -0.894778 -2.160186
v -0.114523 -1.299017 -1.944116
v -0.114523 -1.653335 -1.653335
v -0.114523 -1.944116 -1.299017
v -0.114523 -2.160186 -0.894778
v -0.114523 -2.293241 -0.456154
v -0.114523 -2.338168 -0.000000
v -0.114523 -2.293241 0.456154
v -0.114523 -2.160186 0.894778
v -0.114523 -1.944116 1.299017
v -0.114523 -1.653335 1.653335
v -0.114523 -1.299017 1.944116
v -0.114523 -0.894778 2.160186
v -0.114523 -0.456154 2.293241
v -0.114523 0.000000 2.338168
v -0.114523 0.456154 2.293241
v -0.114523 0.894778 2.160186
v -0.114523 1.299017 1.944116
v -0.114523 1.653335 1.653335
v -0.114523 1.944116 1.299017
v -0.114523 2.160186 0.894778
v -0.114523 2.293241 0.456154
v -0.114523 2.338168 -0.000000
v -0.114523 2.293241 -0.456154
v -0.114523 2.160186 -0.894778
v -0.114523 1.944116 -1.299017
v -0.114523 1.653335 -1.653335
v -0.114523 1.299017 -1.944116
v -0.114523 0.894778 -2.160186
v -0.114523 0.456154 -2.293241
vn -0.0000 -0.0980 -0.9952
vn -0.0000 -0.2903 -0.9569
vn -0.0000 -0.4714 -0.8819
vn -0.0000 -0.6344 -0.7730
vn -0.0000 -0.7730 -0.6344
vn -0.0000 -0.8819 -0.4714
vn -0.0000 -0.9569 -0.2903
vn -0.0000 -0.9952 -0.0980
vn -0.0000 -0.9952 0.0980
vn -0.0000 -0.9569 0.2903
vn -0.0000 -0.8819 0.4714
vn -0.0000 -0.7730 0.6344
vn -0.0000 -0.6344 0.7730
vn -0.0000 -0.4714 0.8819
vn -0.0000 -0.2903 0.9569
vn -0.0000 -0.0980 0.9952
vn -0.0000 0.0980 0.9952
vn -0.0000 0.2903 0.9569
vn -0.0000 0.4714 0.8819
vn -0.0000 0.6344 0.7730
vn -0.0000 0.7730 0.6344
vn -0.0000 0.8819 0.4714
vn -0.0000 0.9569 0.2903
vn -0.0000 0.9952 0.0980
vn -0.0000 0.9952 -0.0980
vn -0.0000 0.9569 -0.2903
vn -0.0000 0.8819 -0.4714
vn -0.0000 0.7730 -0.6344
vn -0.0000 0.6344 -0.7730
vn -0.0000 0.4714 -0.8819
vn 1.0000 -0.0000 -0.0000
vn -0.0000 0.2903 -0.9569
vn -0.0000 0.0980 -0.9952
vn -1.0000 -0.0000 -0.0000
vt 1.000000 1.000000
vt 0.968750 0.500000
vt 1.000000 0.500000
vt 0.968750 1.000000
vt 0.937500 0.500000
vt 0.937500 1.000000
vt 0.906250 0.500000
vt 0.906250 1.000000
vt 0.875000 0.500000
vt 0.875000 1.000000
vt 0.843750 0.500000
vt 0.843750 1.000000
vt 0.812500 0.500000
vt 0.812500 1.000000
vt 0.781250 0.500000
vt 0.781250 1.000000
vt 0.750000 0.500000
vt 0.750000 1.000000
vt 0.718750 0.500000
vt 0.718750 1.000000
vt 0.687500 0.500000
vt 0.687500 1.000000
vt 0.656250 0.500000
vt 0.656250 1.000000
vt 0.625000 0.500000
vt 0.625000 1.000000
vt 0.593750 0.500000
vt 0.593750 1.000000
vt 0.562500 0.500000
vt 0.562500 1.000000
vt 0.531250 0.500000
vt 0.531250 1.000000
vt 0.500000 0.500000
vt 0.500000 1.000000
vt 0.468750 0.500000
vt 0.468750 1.000000
vt 0.437500 0.500000
vt 0.437500 1.000000
vt 0.406250 0.500000
vt 0.406250 1.000000
vt 0.375000 0.500000
vt 0.375000 1.000000
vt 0.343750 0.500000
vt 0.343750 1.000000
vt 0.312500 0.500000
vt 0.312500 1.000000
vt 0.281250 0.500000
vt 0.281250 1.000000
vt 0.250000 0.500000
vt 0.250000 1.000000
vt 0.218750 0.500000
vt 0.218750 1.000000
vt 0.187500 0.500000
vt 0.187500 1.000000
vt 0.156250 0.500000
vt 0.156250 1.000000
vt 0.125000 0.500000
vt 0.125000 1.000000
vt 0.093750 0.500000
vt 0.093750 1.000000
vt 0.062500 0.500000
vt 0.062500 1.000000
vt 0.031250 0.500000
vt 0.031250 1.000000
vt 0.000000 0.500000
vt 0.000000 1.000000
vt 0.158156 0.028269
vt 0.471731 0.158156
vt 0.341844 0.471731
vt 0.796822 0.014612
vt 0.514612 0.203178
vt 0.703178 0.485388
vt 0.296822 0.485388
vt 0.250000 0.490000
vt 0.203178 0.485388
vt 0.158156 0.471731
vt 0.116663 0.449553
vt 0.080294 0.419706
vt 0.050447 0.383337
vt 0.028269 0.341844
vt 0.014612 0.296822
vt 0.010000 0.250000
vt 0.014612 0.203178
vt 0.028269 0.158156
vt 0.050447 0.116663
vt 0.080294 0.080294
vt 0.116663 0.050447
vt 0.203178 0.014612
vt 0.250000 0.010000
vt 0.296822 0.014612
vt 0.341844 0.028269
vt 0.383337 0.050447
vt 0.419706 0.080294
vt 0.449553 0.116663
vt 0.485388 0.203178
vt 0.490000 0.250000
vt 0.485388 0.296822
vt 0.471731 0.341844
vt 0.449553 0.383337
vt 0.419706 0.419706
vt 0.383337 0.449553
vt 0.750000 0.490000
vt 0.796822 0.485388
vt 0.841844 0.471731
vt 0.883337 0.449553
vt 0.919706 0.419706
vt 0.949553 0.383337
vt 0.971731 0.341844
vt 0.985388 0.296822
vt 0.990000 0.250000
vt 0.985388 0.203178
vt 0.971731 0.158156
vt 0.949553 0.116663
vt 0.919706 0.080294
vt 0.883337 0.050447
vt 0.841844 0.028269
vt 0.750000 0.010000
vt 0.703178 0.014612
vt 0.658156 0.028269
vt 0.616663 0.050447
vt 0.580294 0.080294
vt 0.550447 0.116663
vt 0.528269 0.158156
vt 0.510000 0.250000
vt 0.514612 0.296822
vt 0.528269 0.341844
vt 0.550447 0.383337
vt 0.580294 0.419706
vt 0.616663 0.449553
vt 0.658156 0.471731
s 0
f 2/1/1 3/2/1 1/3/1
f 4/4/2 5/5/2 3/2/2
f 6/6/3 7/7/3 5/5/3
f 8/8/4 9/9/4 7/7/4
f 10/10/5 11/11/5 9/9/5
f 12/12/6 13/13/6 11/11/6
f 14/14/7 15/15/7 13/13/7
f 16/16/8 17/17/8 15/15/8
f 18/18/9 19/19/9 17/17/9
f 20/20/10 21/21/10 19/19/10
f 22/22/11 23/23/11 21/21/11
f 24/24/12 25/25/12 23/23/12
f 26/26/13 27/27/13 25/25/13
f 28/28/14 29/29/14 27/27/14
f 30/30/15 31/31/15 29/29/15
f 32/32/16 33/33/16 31/31/16
f 34/34/17 35/35/17 33/33/17
f 36/36/18 37/37/18 35/35/18
f 38/38/19 39/39/19 37/37/19
f 40/40/20 41/41/20 39/39/20
f 42/42/21 43/43/21 41/41/21
f 44/44/22 45/45/22 43/43/22
f 46/46/23 47/47/23 45/45/23
f 48/48/24 49/49/24 47/47/24
f 50/50/25 51/51/25 49/49/25
f 52/52/26 53/53/26 51/51/26
f 54/54/27 55/55/27 53/53/27
f 56/56/28 57/57/28 55/55/28
f 58/58/29 59/59/29 57/57/29
f 60/60/30 61/61/30 59/59/30
f 46/46/31 88/48/31 48/48/31
f 62/62/32 63/63/32 61/61/32
f 64/64/33 1/65/33 63/63/33
f 19/19/34 107/21/34 106/19/34
f 91/54/11 156/56/11 92/56/11
f 4/4/31 66/1/31 65/4/31
f 64/64/31 66/66/31 2/66/31
f 20/20/31 75/22/31 22/22/31
f 38/38/31 84/40/31 40/40/31
f 58/58/31 92/56/31 93/58/31
f 12/12/31 71/14/31 14/14/31
f 30/30/31 80/32/31 32/32/31
f 48/48/31 89/50/31 50/50/31
f 4/4/31 67/6/31 6/6/31
f 22/22/31 76/24/31 24/24/31
f 42/42/31 84/40/31 85/42/31
f 58/58/31 94/60/31 60/60/31
f 14/14/31 72/16/31 16/16/31
f 32/32/31 81/34/31 34/34/31
f 52/52/31 89/50/31 90/52/31
f 6/6/31 68/8/31 8/8/31
f 26/26/31 76/24/31 77/26/31
f 42/42/31 86/44/31 44/44/31
f 60/60/31 95/62/31 62/62/31
f 16/16/31 73/18/31 18/18/31
f 36/36/31 81/34/31 82/36/31
f 52/52/31 91/54/31 54/54/31
f 10/10/31 68/8/31 69/10/31
f 26/26/31 78/28/31 28/28/31
f 44/44/31 87/46/31 46/46/31
f 62/62/31 96/64/31 64/64/31
f 20/20/31 73/18/31 74/20/31
f 36/36/31 83/38/31 38/38/31
f 54/54/31 92/56/31 56/56/31
f 10/10/31 70/12/31 12/12/31
f 28/28/31 79/30/31 30/30/31
f 100/7/19 163/5/19 99/5/19
f 39/39/34 115/37/34 37/37/34
f 57/57/34 124/55/34 55/55/34
f 13/13/34 102/11/34 11/11/34
f 31/31/34 111/29/34 29/29/34
f 47/47/34 121/49/34 120/47/34
f 3/2/34 99/5/34 98/2/34
f 23/23/34 107/21/34 21/21/34
f 41/41/34 116/39/34 39/39/34
f 59/59/34 125/57/34 57/57/34
f 15/15/34 103/13/34 13/13/34
f 31/31/34 113/33/34 112/31/34
f 51/51/34 121/49/34 49/49/34
f 7/7/34 99/5/34 5/5/34
f 25/25/34 108/23/34 23/23/34
f 43/43/34 117/41/34 41/41/34
f 61/61/34 126/59/34 59/59/34
f 15/15/34 105/17/34 104/15/34
f 35/35/34 113/33/34 33/33/34
f 51/51/34 123/53/34 122/51/34
f 9/9/34 100/7/34 7/7/34
f 25/25/34 110/27/34 109/25/34
f 45/45/34 118/43/34 43/43/34
f 63/63/34 127/61/34 61/61/34
f 19/19/34 105/17/34 17/17/34
f 35/35/34 115/37/34 114/35/34
f 55/55/34 123/53/34 53/53/34
f 11/11/34 101/9/34 9/9/34
f 27/27/34 111/29/34 110/27/34
f 47/47/34 119/45/34 45/45/34
f 3/2/34 97/3/34 1/3/34
f 63/63/34 97/65/34 128/63/34
f 147/67/31 139/68/31 131/69/31
f 78/28/30 143/30/30 79/30/30
f 66/1/17 129/4/17 65/4/17
f 92/56/12 157/58/12 93/58/12
f 79/30/32 144/32/32 80/32/32
f 65/4/18 131/6/18 67/6/18
f 93/58/13 158/60/13 94/60/13
f 80/32/33 145/34/33 81/34/33
f 67/6/19 132/8/19 68/8/19
f 94/60/14 159/62/14 95/62/14
f 81/34/1 146/36/1 82/36/1
f 68/8/20 133/10/20 69/10/20
f 95/62/15 160/64/15 96/64/15
f 82/36/2 147/38/2 83/38/2
f 69/10/21 134/12/21 70/12/21
f 96/64/16 130/66/16 66/66/16
f 83/38/3 148/40/3 84/40/3
f 70/12/22 135/14/22 71/14/22
f 84/40/4 149/42/4 85/42/4
f 71/14/23 136/16/23 72/16/23
f 85/42/5 150/44/5 86/44/5
f 72/16/24 137/18/24 73/18/24
f 86/44/6 151/46/6 87/46/6
f 73/18/25 138/20/25 74/20/25
f 87/46/7 152/48/7 88/48/7
f 74/20/26 139/22/26 75/22/26
f 88/48/8 153/50/8 89/50/8
f 75/22/27 140/24/27 76/24/27
f 89/50/9 154/52/9 90/52/9
f 76/24/28 141/26/28 77/26/28
f 90/52/10 155/54/10 91/54/10
f 77/26/29 142/28/29 78/28/29
f 176/70/34 184/71/34 192/72/34
f 127/61/14 190/59/14 126/59/14
f 114/35/1 177/33/1 113/33/1
f 101/9/20 164/7/20 100/7/20
f 128/63/15 191/61/15 127/61/15
f 115/37/2 178/35/2 114/35/2
f 102/11/21 165/9/21 101/9/21
f 97/65/16 192/63/16 128/63/16
f 116/39/3 179/37/3 115/37/3
f 103/13/22 166/11/22 102/11/22
f 117/41/4 180/39/4 116/39/4
f 104/15/23 167/13/23 103/13/23
f 118/43/5 181/41/5 117/41/5
f 105/17/24 168/15/24 104/15/24
f 119/45/6 182/43/6 118/43/6
f 106/19/25 169/17/25 105/17/25
f 120/47/7 183/45/7 119/45/7
f 107/21/26 170/19/26 106/19/26
f 121/49/8 184/47/8 120/47/8
f 108/23/27 171/21/27 107/21/27
f 122/51/9 185/49/9 121/49/9
f 109/25/28 172/23/28 108/23/28
f 123/53/10 186/51/10 122/51/10
f 110/27/29 173/25/29 109/25/29
f 124/55/11 187/53/11 123/53/11
f 111/29/30 174/27/30 110/27/30
f 98/2/17 161/3/17 97/3/17
f 125/57/12 188/55/12 124/55/12
f 112/31/32 175/29/32 111/29/32
f 99/5/18 162/2/18 98/2/18
f 126/59/13 189/57/13 125/57/13
f 113/33/33 176/31/33 112/31/33
f 2/1/1 4/4/1 3/2/1
f 4/4/2 6/6/2 5/5/2
f 6/6/3 8/8/3 7/7/3
f 8/8/4 10/10/4 9/9/4
f 10/10/5 12/12/5 11/11/5
f 12/12/6 14/14/6 13/13/6
f 14/14/7 16/16/7 15/15/7
f 16/16/8 18/18/8 17/17/8
f 18/18/9 20/20/9 19/19/9
f 20/20/10 22/22/10 21/21/10
f 22/22/11 24/24/11 23/23/11
f 24/24/12 26/26/12 25/25/12
f 26/26/13 28/28/13 27/27/13
f 28/28/14 30/30/14 29/29/14
f 30/30/15 32/32/15 31/31/15
f 32/32/16 34/34/16 33/33/16
f 34/34/17 36/36/17 35/35/17
f 36/36/18 38/38/18 37/37/18
f 38/38/19 40/40/19 39/39/19
f 40/40/20 42/42/20 41/41/20
f 42/42/21 44/44/21 43/43/21
f 44/44/22 46/46/22 45/45/22
f 46/46/23 48/48/23 47/47/23
f 48/48/24 50/50/24 49/49/24
f 50/50/25 52/52/25 51/51/25
f 52/52/26 54/54/26 53/53/26
f 54/54/27 56/56/27 55/55/27
f 56/56/28 58/58/28 57/57/28
f 58/58/29 60/60/29 59/59/29
f 60/60/30 62/62/30 61/61/30
f 46/46/31 87/46/31 88/48/31
f 62/62/32 64/64/32 63/63/32
f 64/64/33 2/66/33 1/65/33
f 19/19/34 21/21/34 107/21/34
f 91/54/11 155/54/11 156/56/11
f 4/4/31 2/1/31 66/1/31
f 64/64/31 96/64/31 66/66/31
f 20/20/31 74/20/31 75/22/31
f 38/38/31 83/38/31 84/40/31
f 58/58/31 56/56/31 92/56/31
f 12/12/31 70/12/31 71/14/31
f 30/30/31 79/30/31 80/32/31
f 48/48/31 88/48/31 89/50/31
f 4/4/31 65/4/31 67/6/31
f 22/22/31 75/22/31 76/24/31
f 42/42/31 40/40/31 84/40/31
f 58/58/31 93/58/31 94/60/31
f 14/14/31 71/14/31 72/16/31
f 32/32/31 80/32/31 81/34/31
f 52/52/31 50/50/31 89/50/31
f 6/6/31 67/6/31 68/8/31
f 26/26/31 24/24/31 76/24/31
f 42/42/31 85/42/31 86/44/31
f 60/60/31 94/60/31 95/62/31
f 16/16/31 72/16/31 73/18/31
f 36/36/31 34/34/31 81/34/31
f 52/52/31 90/52/31 91/54/31
f 10/10/31 8/8/31 68/8/31
f 26/26/31 77/26/31 78/28/31
f 44/44/31 86/44/31 87/46/31
f 62/62/31 95/62/31 96/64/31
f 20/20/31 18/18/31 73/18/31
f 36/36/31 82/36/31 83/38/31
f 54/54/31 91/54/31 92/56/31
f 10/10/31 69/10/31 70/12/31
f 28/28/31 78/28/31 79/30/31
f 100/7/19 164/7/19 163/5/19
f 39/39/34 116/39/34 115/37/34
f 57/57/34 125/57/34 124/55/34
f 13/13/34 103/13/34 102/11/34
f 31/31/34 112/31/34 111/29/34
f 47/47/34 49/49/34 121/49/34
f 3/2/34 5/5/34 99/5/34
f 23/23/34 108/23/34 107/21/34
f 41/41/34 117/41/34 116/39/34
f 59/59/34 126/59/34 125/57/34
f 15/15/34 104/15/34 103/13/34
f 31/31/34 33/33/34 113/33/34
f 51/51/34 122/51/34 121/49/34
f 7/7/34 100/7/34 99/5/34
f 25/25/34 109/25/34 108/23/34
f 43/43/34 118/43/34 117/41/34
f 61/61/34 127/61/34 126/59/34
f 15/15/34 17/17/34 105/17/34
f 35/35/34 114/35/34 113/33/34
f 51/51/34 53/53/34 123/53/34
f 9/9/34 101/9/34 100/7/34
f 25/25/34 27/27/34 110/27/34
f 45/45/34 119/45/34 118/43/34
f 63/63/34 128/63/34 127/61/34
f 19/19/34 106/19/34 105/17/34
f 35/35/34 37/37/34 115/37/34
f 55/55/34 124/55/34 123/53/34
f 11/11/34 102/11/34 101/9/34
f 27/27/34 29/29/34 111/29/34
f 47/47/34 120/47/34 119/45/34
f 3/2/34 98/2/34 97/3/34
f 63/63/34 1/65/34 97/65/34
f 131/69/31 129/73/31 130/74/31
f 130/74/31 160/75/31 159/76/31
f 159/76/31 158/77/31 157/78/31
f 157/78/31 156/79/31 155/80/31
f 155/80/31 154/81/31 153/82/31
f 153/82/31 152/83/31 151/84/31
f 151/84/31 150/85/31 149/86/31
f 149/86/31 148/87/31 147/67/31
f 147/67/31 146/88/31 145/89/31
f 145/89/31 144/90/31 143/91/31
f 143/91/31 142/92/31 141/93/31
f 141/93/31 140/94/31 139/68/31
f 139/68/31 138/95/31 137/96/31
f 137/96/31 136/97/31 135/98/31
f 135/98/31 134/99/31 133/100/31
f 133/100/31 132/101/31 131/69/31
f 131/69/31 130/74/31 159/76/31
f 159/76/31 157/78/31 155/80/31
f 155/80/31 153/82/31 151/84/31
f 151/84/31 149/86/31 147/67/31
f 147/67/31 145/89/31 143/91/31
f 143/91/31 141/93/31 139/68/31
f 139/68/31 137/96/31 135/98/31
f 135/98/31 133/100/31 131/69/31
f 131/69/31 159/76/31 155/80/31
f 155/80/31 151/84/31 147/67/31
f 147/67/31 143/91/31 139/68/31
f 139/68/31 135/98/31 131/69/31
f 131/69/31 155/80/31 147/67/31
f 78/28/30 142/28/30 143/30/30
f 66/1/17 130/1/17 129/4/17
f 92/56/12 156/56/12 157/58/12
f 79/30/32 143/30/32 144/32/32
f 65/4/18 129/4/18 131/6/18
f 93/58/13 157/58/13 158/60/13
f 80/32/33 144/32/33 145/34/33
f 67/6/19 131/6/19 132/8/19
f 94/60/14 158/60/14 159/62/14
f 81/34/1 145/34/1 146/36/1
f 68/8/20 132/8/20 133/10/20
f 95/62/15 159/62/15 160/64/15
f 82/36/2 146/36/2 147/38/2
f 69/10/21 133/10/21 134/12/21
f 96/64/16 160/64/16 130/66/16
f 83/38/3 147/38/3 148/40/3
f 70/12/22 134/12/22 135/14/22
f 84/40/4 148/40/4 149/42/4
f 71/14/23 135/14/23 136/16/23
f 85/42/5 149/42/5 150/44/5
f 72/16/24 136/16/24 137/18/24
f 86/44/6 150/44/6 151/46/6
f 73/18/25 137/18/25 138/20/25
f 87/46/7 151/46/7 152/48/7
f 74/20/26 138/20/26 139/22/26
f 88/48/8 152/48/8 153/50/8
f 75/22/27 139/22/27 140/24/27
f 89/50/9 153/50/9 154/52/9
f 76/24/28 140/24/28 141/26/28
f 90/52/10 154/52/10 155/54/10
f 77/26/29 141/26/29 142/28/29
f 192/72/34 161/102/34 162/103/34
f 162/103/34 163/104/34 164/105/34
f 164/105/34 165/106/34 166/107/34
f 166/107/34 167/108/34 168/109/34
f 168/109/34 169/110/34 170/111/34
f 170/111/34 171/112/34 172/113/34
f 172/113/34 173/114/34 174/115/34
f 174/115/34 175/116/34 176/70/34
f 176/70/34 177/117/34 178/118/34
f 178/118/34 179/119/34 180/120/34
f 180/120/34 181/121/34 182/122/34
f 182/122/34 183/123/34 184/71/34
f 184/71/34 185/124/34 186/125/34
f 186/125/34 187/126/34 188/127/34
f 188/127/34 189/128/34 190/129/34
f 190/129/34 191/130/34 192/72/34
f 192/72/34 162/103/34 164/105/34
f 164/105/34 166/107/34 168/109/34
f 168/109/34 170/111/34 172/113/34
f 172/113/34 174/115/34 176/70/34
f 176/70/34 178/118/34 180/120/34
f 180/120/34 182/122/34 184/71/34
f 184/71/34 186/125/34 188/127/34
f 188/127/34 190/129/34 192/72/34
f 192/72/34 164/105/34 168/109/34
f 168/109/34 172/113/34 176/70/34
f 176/70/34 180/120/34 184/71/34
f 184/71/34 188/127/34 192/72/34
f 192/72/34 168/109/34 176/70/34
f 127/61/14 191/61/14 190/59/14
f 114/35/1 178/35/1 177/33/1
f 101/9/20 165/9/20 164/7/20
f 128/63/15 192/63/15 191/61/15
f 115/37/2 179/37/2 178/35/2
f 102/11/21 166/11/21 165/9/21
f 97/65/16 161/65/16 192/63/16
f 116/39/3 180/39/3 179/37/3
f 103/13/22 167/13/22 166/11/22
f 117/41/4 181/41/4 180/39/4
f 104/15/23 168/15/23 167/13/23
f 118/43/5 182/43/5 181/41/5
f 105/17/24 169/17/24 168/15/24
f 119/45/6 183/45/6 182/43/6
f 106/19/25 170/19/25 169/17/25
f 120/47/7 184/47/7 183/45/7
f 107/21/26 171/21/26 170/19/26
f 121/49/8 185/49/8 184/47/8
f 108/23/27 172/23/27 171/21/27
f 122/51/9 186/51/9 185/49/9
f 109/25/28 173/25/28 172/23/28
f 123/53/10 187/53/10 186/51/10
f 110/27/29 174/27/29 173/25/29
f 124/55/11 188/55/11 187/53/11
f 111/29/30 175/29/30 174/27/30
f 98/2/17 162/2/17 161/3/17
f 125/57/12 189/57/12 188/55/12
f 112/31/32 176/31/32 175/29/32
f 99/5/18 163/5/18 162/2/18
f 126/59/13 190/59/13 189/57/13
f 113/33/33 177/33/33 176/31/33
