# Blender 3.6.8
# www.blender.org
mtllib Pipe.mtl
o Pype
v -854.821899 -0.000049 -53.813019
v 645.178040 0.000049 -53.813019
v -854.821899 -10.498447 -52.779015
v 645.178040 -10.498350 -52.779015
v -854.821899 -20.593401 -49.716743
v 645.178040 -20.593304 -49.716743
v -854.821899 -29.896963 -44.743889
v 645.178040 -29.896864 -44.743889
v -854.821899 -38.051598 -38.051548
v 645.178040 -38.051498 -38.051548
v -854.821899 -44.743942 -29.896912
v 645.178040 -44.743835 -29.896912
v -854.821899 -49.716797 -20.593351
v 645.178040 -49.716698 -20.593351
v -854.821899 -52.779068 -10.498399
v 645.178040 -52.778969 -10.498399
v -854.821899 -53.813072 0.000000
v 645.178040 -53.812965 0.000000
v -854.821899 -52.779068 10.498399
v 645.178040 -52.778969 10.498399
v -854.821899 -49.716797 20.593351
v 645.178040 -49.716698 20.593351
v -854.821899 -44.743942 29.896912
v 645.178040 -44.743835 29.896912
v -854.821899 -38.051598 38.051548
v 645.178040 -38.051498 38.051548
v -854.821899 -29.896963 44.743889
v 645.178040 -29.896864 44.743889
v -854.821899 -20.593401 49.716743
v 645.178040 -20.593304 49.716743
v -854.821899 -10.498447 52.779015
v 645.178040 -10.498350 52.779015
v -854.821899 -0.000049 53.813019
v 645.178040 0.000049 53.813019
v -854.821899 10.498351 52.779015
v 645.178040 10.498448 52.779015
v -854.821899 20.593304 49.716743
v 645.178040 20.593401 49.716743
v -854.821899 29.896860 44.743889
v 645.178040 29.896959 44.743889
v -854.821899 38.051498 38.051548
v 645.178040 38.051598 38.051548
v -854.821899 44.743835 29.896912
v 645.178040 44.743942 29.896912
v -854.821899 49.716690 20.593351
v 645.178040 49.716797 20.593351
v -854.821899 52.778961 10.498399
v 645.178040 52.779068 10.498399
v -854.821899 53.812965 0.000000
v 645.178040 53.813072 0.000000
v -854.821899 52.778961 -10.498399
v 645.178040 52.779068 -10.498399
v -854.821899 49.716690 -20.593351
v 645.178040 49.716797 -20.593351
v -854.821899 44.743835 -29.896912
v 645.178040 44.743942 -29.896912
v -854.821899 38.051498 -38.051548
v 645.178040 38.051598 -38.051548
v -854.821899 29.896860 -44.743889
v 645.178040 29.896959 -44.743889
v -854.821899 20.593304 -49.716743
v 645.178040 20.593401 -49.716743
v -854.821899 10.498351 -52.779015
v 645.178040 10.498448 -52.779015
v 645.178040 41.205246 -27.532434
v 645.178040 27.532484 -41.205200
v 645.178040 35.042191 -35.042141
v 645.178040 9.668155 -48.604843
v 645.178040 18.964720 -45.784763
v 645.178040 -9.668056 -48.604843
v 645.178040 0.000049 -49.557072
v 645.178040 49.557121 0.000000
v 645.178040 48.604897 -9.668105
v 645.178040 48.604897 9.668105
v 645.178040 41.205246 27.532434
v 645.178040 27.532484 41.205200
v 645.178040 35.042191 35.042141
v 645.178040 45.784813 18.964672
v 645.178040 9.668155 48.604843
v 645.178040 -9.668056 48.604843
v 645.178040 0.000049 49.557072
v 645.178040 -35.042091 35.042141
v 645.178040 -27.532387 41.205200
v 645.178040 -41.205147 27.532434
v 645.178040 -18.964624 45.784763
v 645.178040 -27.532387 -41.205200
v 645.178040 -41.205147 -27.532434
v 645.178040 -35.042091 -35.042141
v 645.178040 -49.557022 0.000000
v 645.178040 -48.604797 9.668105
v 645.178040 -48.604797 -9.668105
v 645.178040 -45.784714 -18.964672
v 645.178040 45.784813 -18.964672
v 645.178040 18.964720 45.784763
v 645.178040 -45.784714 18.964672
v 645.178040 -18.964624 -45.784763
v -854.821899 -0.000049 -49.557072
v -854.821899 -18.964720 -45.784763
v -854.821899 -9.668154 -48.604843
v -854.821899 -35.042191 -35.042141
v -854.821899 -41.205254 -27.532434
v -854.821899 -45.784813 -18.964672
v -854.821899 -27.532486 -41.205200
v -854.821899 -18.964720 45.784763
v -854.821899 -35.042191 35.042141
v -854.821899 -27.532486 41.205200
v -854.821899 -45.784813 18.964672
v -854.821899 -41.205254 27.532434
v -854.821899 -49.557121 0.000000
v -854.821899 -48.604897 9.668105
v -854.821899 45.784714 18.964672
v -854.821899 35.042091 35.042141
v -854.821899 41.205147 27.532434
v -854.821899 18.964624 45.784763
v -854.821899 27.532383 41.205200
v -854.821899 -0.000049 49.557072
v -854.821899 9.668056 48.604843
v -854.821899 49.557022 0.000000
v -854.821899 45.784714 -18.964672
v -854.821899 48.604790 -9.668105
v -854.821899 35.042091 -35.042141
v -854.821899 18.964624 -45.784763
v -854.821899 27.532383 -41.205200
v -854.821899 41.205147 -27.532434
v -854.821899 -48.604897 -9.668105
v -854.821899 -9.668154 48.604843
v -854.821899 48.604790 9.668105
v -854.821899 9.668056 -48.604843
vn -0.0000 -0.0980 -0.9952
vn -0.0000 -0.2903 -0.9569
vn -0.0000 -0.4714 -0.8819
vn -0.0000 -0.6344 -0.7730
vn -0.0000 -0.7730 -0.6344
vn -0.0000 -0.8819 -0.4714
vn -0.0000 -0.9569 -0.2903
vn -0.0000 -0.9952 -0.0980
vn -0.0000 -0.9952 0.0980
vn -0.0000 -0.9569 0.2903
vn -0.0000 -0.8819 0.4714
vn -0.0000 -0.7730 0.6344
vn -0.0000 -0.6344 0.7730
vn -0.0000 -0.4714 0.8819
vn -0.0000 -0.2903 0.9569
vn -0.0000 -0.0980 0.9952
vn -0.0000 0.0980 0.9952
vn -0.0000 0.2903 0.9569
vn -0.0000 0.4714 0.8819
vn -0.0000 0.6344 0.7730
vn -0.0000 0.7730 0.6344
vn -0.0000 0.8819 0.4714
vn -0.0000 0.9569 0.2903
vn -0.0000 0.9952 0.0980
vn -0.0000 0.9952 -0.0980
vn -0.0000 0.9569 -0.2903
vn -0.0000 0.8819 -0.4714
vn -0.0000 0.7730 -0.6344
vn -0.0000 0.6344 -0.7730
vn -0.0000 0.4714 -0.8819
vn 1.0000 -0.0000 -0.0000
vn -0.0000 0.2903 -0.9569
vn -0.0000 0.0980 -0.9952
vn -1.0000 -0.0000 -0.0000
vn 1.0000 -0.0001 -0.0000
vn 1.0000 0.0001 -0.0000
vt 1.000000 1.000000
vt 0.968750 0.500000
vt 1.000000 0.500000
vt 0.968750 1.000000
vt 0.937500 0.500000
vt 0.937500 1.000000
vt 0.906250 0.500000
vt 0.906250 1.000000
vt 0.875000 0.500000
vt 0.875000 1.000000
vt 0.843750 0.500000
vt 0.843750 1.000000
vt 0.812500 0.500000
vt 0.812500 1.000000
vt 0.781250 0.500000
vt 0.781250 1.000000
vt 0.750000 0.500000
vt 0.750000 1.000000
vt 0.718750 0.500000
vt 0.718750 1.000000
vt 0.687500 0.500000
vt 0.687500 1.000000
vt 0.656250 0.500000
vt 0.656250 1.000000
vt 0.625000 0.500000
vt 0.625000 1.000000
vt 0.593750 0.500000
vt 0.593750 1.000000
vt 0.562500 0.500000
vt 0.562500 1.000000
vt 0.531250 0.500000
vt 0.531250 1.000000
vt 0.500000 0.500000
vt 0.500000 1.000000
vt 0.468750 0.500000
vt 0.468750 1.000000
vt 0.437500 0.500000
vt 0.437500 1.000000
vt 0.406250 0.500000
vt 0.406250 1.000000
vt 0.375000 0.500000
vt 0.375000 1.000000
vt 0.343750 0.500000
vt 0.343750 1.000000
vt 0.312500 0.500000
vt 0.312500 1.000000
vt 0.281250 0.500000
vt 0.281250 1.000000
vt 0.250000 0.500000
vt 0.250000 1.000000
vt 0.218750 0.500000
vt 0.218750 1.000000
vt 0.187500 0.500000
vt 0.187500 1.000000
vt 0.156250 0.500000
vt 0.156250 1.000000
vt 0.125000 0.500000
vt 0.125000 1.000000
vt 0.093750 0.500000
vt 0.093750 1.000000
vt 0.062500 0.500000
vt 0.471731 0.341844
vt 0.454195 0.334580
vt 0.466772 0.293119
vt 0.028269 0.158156
vt 0.045805 0.165420
vt 0.033228 0.206881
vt 0.062500 1.000000
vt 0.031250 0.500000
vt 0.031250 1.000000
vt 0.000000 0.500000
vt 0.796822 0.014612
vt 0.793119 0.033228
vt 0.834580 0.045805
vt 0.703178 0.485388
vt 0.706881 0.466772
vt 0.665420 0.454195
vt 0.968750 0.984116
vt 1.000000 0.515884
vt 0.968750 0.515884
vt 0.937500 0.984116
vt 0.937500 0.515884
vt 0.906250 0.984116
vt 0.906250 0.515884
vt 0.875000 0.984116
vt 0.875000 0.515884
vt 0.843750 0.515884
vt 0.843750 0.984116
vt 0.812500 0.515884
vt 0.812500 0.984116
vt 0.781250 0.515884
vt 0.781250 0.984116
vt 0.750000 0.515884
vt 0.750000 0.984116
vt 0.718750 0.515884
vt 0.718750 0.984116
vt 0.687500 0.515884
vt 0.687500 0.984116
vt 0.656250 0.515884
vt 0.656250 0.984116
vt 0.625000 0.984116
vt 0.625000 0.515884
vt 0.593750 0.515884
vt 0.593750 0.984116
vt 0.562500 0.515884
vt 0.562500 0.984116
vt 0.531250 0.515884
vt 0.531250 0.984116
vt 0.500000 0.515884
vt 0.500000 0.984116
vt 0.468750 0.515884
vt 0.468750 0.984116
vt 0.437500 0.515884
vt 0.437500 0.984116
vt 0.406250 0.515884
vt 0.406250 0.984116
vt 0.375000 0.515884
vt 0.375000 0.984116
vt 0.343750 0.984116
vt 0.343750 0.515884
vt 0.312500 0.984116
vt 0.312500 0.515884
vt 0.281250 0.984116
vt 0.281250 0.515884
vt 0.250000 0.984116
vt 0.250000 0.515884
vt 0.218750 0.984116
vt 0.218750 0.515884
vt 0.187500 0.984116
vt 0.187500 0.515884
vt 0.156250 0.984116
vt 0.156250 0.515884
vt 0.125000 0.515884
vt 0.093750 0.984116
vt 0.093750 0.515884
vt 0.062500 0.984116
vt 0.062500 0.515884
vt 0.031250 0.984116
vt 0.031250 0.515884
vt 0.000000 0.984116
vt 0.000000 0.515884
vt 0.466772 0.206881
vt 0.454195 0.165420
vt 0.471731 0.158156
vt 0.485388 0.203178
vt 0.490000 0.250000
vt 0.485388 0.296822
vt 0.449553 0.383337
vt 0.419706 0.419706
vt 0.383337 0.449553
vt 0.341844 0.471731
vt 0.334580 0.454195
vt 0.372792 0.433771
vt 0.406284 0.406284
vt 0.471019 0.250000
vt 0.433771 0.372792
vt 0.293119 0.466772
vt 0.296822 0.485388
vt 0.250000 0.490000
vt 0.203178 0.485388
vt 0.158156 0.471731
vt 0.116663 0.449553
vt 0.080294 0.419706
vt 0.050447 0.383337
vt 0.028269 0.341844
vt 0.014612 0.296822
vt 0.010000 0.250000
vt 0.014612 0.203178
vt 0.050447 0.116663
vt 0.080294 0.080294
vt 0.116663 0.050447
vt 0.158156 0.028269
vt 0.203178 0.014612
vt 0.250000 0.010000
vt 0.296822 0.014612
vt 0.341844 0.028269
vt 0.383337 0.050447
vt 0.419706 0.080294
vt 0.449553 0.116663
vt 0.433771 0.127208
vt 0.406284 0.093716
vt 0.250000 0.471019
vt 0.372792 0.066229
vt 0.206881 0.466772
vt 0.165420 0.454195
vt 0.334580 0.045805
vt 0.293119 0.033228
vt 0.127208 0.433771
vt 0.093716 0.406284
vt 0.250000 0.028981
vt 0.066229 0.372792
vt 0.206881 0.033228
vt 0.165420 0.045805
vt 0.045805 0.334580
vt 0.033228 0.293119
vt 0.127208 0.066229
vt 0.093716 0.093716
vt 0.028981 0.250000
vt 0.066229 0.127208
vt 0.000000 1.000000
vt 0.906284 0.406284
vt 0.872792 0.433771
vt 0.883337 0.449553
vt 0.919706 0.419706
vt 0.949553 0.383337
vt 0.971731 0.341844
vt 0.985388 0.296822
vt 0.990000 0.250000
vt 0.985388 0.203178
vt 0.971731 0.158156
vt 0.949553 0.116663
vt 0.919706 0.080294
vt 0.883337 0.050447
vt 0.841844 0.028269
vt 0.750000 0.010000
vt 0.703178 0.014612
vt 0.658156 0.028269
vt 0.616663 0.050447
vt 0.580294 0.080294
vt 0.550447 0.116663
vt 0.528269 0.158156
vt 0.514612 0.203178
vt 0.510000 0.250000
vt 0.514612 0.296822
vt 0.528269 0.341844
vt 0.550447 0.383337
vt 0.566229 0.372792
vt 0.545805 0.334580
vt 0.533228 0.293119
vt 0.933770 0.372791
vt 0.528981 0.250000
vt 0.954195 0.334580
vt 0.966772 0.293119
vt 0.533228 0.206881
vt 0.545805 0.165420
vt 0.971019 0.250000
vt 0.966772 0.206881
vt 0.566229 0.127208
vt 0.954195 0.165420
vt 0.593716 0.093716
vt 0.627208 0.066229
vt 0.933770 0.127208
vt 0.906284 0.093716
vt 0.665420 0.045805
vt 0.706881 0.033228
vt 0.872792 0.066229
vt 0.750000 0.028981
vt 0.593716 0.406284
vt 0.580294 0.419706
vt 0.616663 0.449553
vt 0.658156 0.471731
vt 0.750000 0.490000
vt 0.796822 0.485388
vt 0.841844 0.471731
vt 0.834580 0.454195
vt 0.793118 0.466772
vt 0.627208 0.433771
vt 0.750000 0.471019
vt 1.000000 0.984116
vt 0.125000 0.984116
s 0
usemtl Material.001
f 2/1/1 3/2/1 1/3/1
f 4/4/2 5/5/2 3/2/2
f 6/6/3 7/7/3 5/5/3
f 8/8/4 9/9/4 7/7/4
f 10/10/5 11/11/5 9/9/5
f 12/12/6 13/13/6 11/11/6
f 14/14/7 15/15/7 13/13/7
f 16/16/8 17/17/8 15/15/8
f 18/18/9 19/19/9 17/17/9
f 20/20/10 21/21/10 19/19/10
f 22/22/11 23/23/11 21/21/11
f 24/24/12 25/25/12 23/23/12
f 26/26/13 27/27/13 25/25/13
f 28/28/14 29/29/14 27/27/14
f 30/30/15 31/31/15 29/29/15
f 32/32/16 33/33/16 31/31/16
f 34/34/17 35/35/17 33/33/17
f 36/36/18 37/37/18 35/35/18
f 38/38/19 39/39/19 37/37/19
f 40/40/20 41/41/20 39/39/20
f 42/42/21 43/43/21 41/41/21
f 44/44/22 45/45/22 43/43/22
f 46/46/23 47/47/23 45/45/23
f 48/48/24 49/49/24 47/47/24
f 50/50/25 51/51/25 49/49/25
f 52/52/26 53/53/26 51/51/26
f 54/54/27 55/55/27 53/53/27
f 56/56/28 57/57/28 55/55/28
f 58/58/29 59/59/29 57/57/29
f 60/60/30 61/61/30 59/59/30
f 14/62/31 92/63/31 91/64/31
f 46/65/31 78/66/31 74/67/31
f 62/68/32 63/69/32 61/61/32
f 64/70/33 1/71/33 63/69/33
f 31/72/34 126/73/34 104/74/34
f 63/75/34 128/76/34 122/77/34
f 2/1/1 4/4/1 3/2/1
f 4/4/2 6/6/2 5/5/2
f 6/6/3 8/8/3 7/7/3
f 8/8/4 10/10/4 9/9/4
f 10/10/5 12/12/5 11/11/5
f 12/12/6 14/14/6 13/13/6
f 14/14/7 16/16/7 15/15/7
f 16/16/8 18/18/8 17/17/8
f 18/18/9 20/20/9 19/19/9
f 20/20/10 22/22/10 21/21/10
f 22/22/11 24/24/11 23/23/11
f 24/24/12 26/26/12 25/25/12
f 26/26/13 28/28/13 27/27/13
f 28/28/14 30/30/14 29/29/14
f 30/30/15 32/32/15 31/31/15
f 32/32/16 34/34/16 33/33/16
f 34/34/17 36/36/17 35/35/17
f 36/36/18 38/38/18 37/37/18
f 38/38/19 40/40/19 39/39/19
f 40/40/20 42/42/20 41/41/20
f 42/42/21 44/44/21 43/43/21
f 44/44/22 46/46/22 45/45/22
f 46/46/23 48/48/23 47/47/23
f 48/48/24 50/50/24 49/49/24
f 50/50/25 52/52/25 51/51/25
f 52/52/26 54/54/26 53/53/26
f 54/54/27 56/56/27 55/55/27
f 56/56/28 58/58/28 57/57/28
f 58/58/29 60/60/29 59/59/29
f 60/60/30 62/68/30 61/61/30
f 90/142/31 95/143/31 22/144/31
f 22/144/35 20/145/35 18/146/35
f 18/146/35 16/147/35 14/62/35
f 14/62/36 12/148/36 10/149/36
f 10/149/31 8/150/31 6/151/31
f 6/151/31 96/152/31 86/153/31
f 6/151/31 86/153/31 88/154/31
f 14/62/31 10/149/31 6/151/31
f 22/144/31 18/146/31 14/62/31
f 89/155/31 90/142/31 22/144/31
f 89/155/31 22/144/31 14/62/31
f 14/62/31 6/151/31 88/154/31
f 14/62/36 88/154/36 87/156/36
f 91/64/31 89/155/31 14/62/31
f 14/62/31 87/156/31 92/63/31
f 70/157/31 96/152/31 6/151/31
f 6/151/31 4/158/31 2/159/31
f 2/159/31 64/160/31 62/161/31
f 62/161/35 60/162/35 58/163/35
f 58/163/35 56/164/35 54/165/35
f 54/165/36 52/166/36 50/167/36
f 50/167/36 48/168/36 46/65/36
f 46/65/35 44/169/35 42/170/35
f 42/170/31 40/171/31 38/172/31
f 38/172/31 36/173/31 34/174/31
f 34/174/31 32/175/31 30/176/31
f 30/176/36 28/177/36 26/178/36
f 26/178/36 24/179/36 22/144/36
f 22/144/31 95/143/31 84/180/31
f 22/144/36 84/180/36 82/181/36
f 30/176/31 26/178/31 22/144/31
f 38/172/31 34/174/31 30/176/31
f 46/65/31 42/170/31 38/172/31
f 54/165/31 50/167/31 46/65/31
f 62/161/31 58/163/31 54/165/31
f 6/151/31 2/159/31 62/161/31
f 71/182/31 70/157/31 6/151/31
f 71/182/31 6/151/31 62/161/31
f 30/176/31 22/144/31 82/181/31
f 30/176/31 82/181/31 83/183/31
f 68/184/31 71/182/31 62/161/31
f 69/185/31 68/184/31 62/161/31
f 30/176/31 83/183/31 85/186/31
f 30/176/31 85/186/31 80/187/31
f 66/188/31 69/185/31 62/161/31
f 67/189/31 66/188/31 62/161/31
f 30/176/31 80/187/31 81/190/31
f 38/172/31 30/176/31 81/190/31
f 67/189/31 62/161/31 54/165/31
f 65/191/31 67/189/31 54/165/31
f 38/172/31 81/190/31 79/192/31
f 38/172/31 79/192/31 94/193/31
f 93/194/31 65/191/31 54/165/31
f 73/195/31 93/194/31 54/165/31
f 38/172/31 94/193/31 76/196/31
f 38/172/31 76/196/31 77/197/31
f 72/198/31 73/195/31 54/165/31
f 72/198/31 54/165/31 46/65/31
f 46/65/31 38/172/31 77/197/31
f 46/65/35 77/197/35 75/199/35
f 74/67/31 72/198/31 46/65/31
f 46/65/31 75/199/31 78/66/31
f 62/68/32 64/70/32 63/69/32
f 64/70/33 2/200/33 1/71/33
f 100/201/34 103/202/34 7/203/34
f 7/203/34 9/204/34 11/205/34
f 11/205/34 13/206/34 15/207/34
f 15/207/34 17/208/34 19/209/34
f 19/209/34 21/210/34 23/211/34
f 23/211/34 25/212/34 27/213/34
f 27/213/34 29/214/34 31/72/34
f 31/72/34 33/215/34 35/216/34
f 35/216/34 37/217/34 39/218/34
f 39/218/34 41/219/34 43/220/34
f 43/220/34 45/221/34 47/222/34
f 47/222/34 49/223/34 51/224/34
f 51/224/34 53/225/34 55/226/34
f 55/226/34 124/227/34 119/228/34
f 55/226/34 119/228/34 120/229/34
f 47/222/34 51/224/34 55/226/34
f 39/218/34 43/220/34 47/222/34
f 31/72/34 35/216/34 39/218/34
f 23/211/34 27/213/34 31/72/34
f 15/207/34 19/209/34 23/211/34
f 7/203/34 11/205/34 15/207/34
f 101/230/34 100/201/34 7/203/34
f 101/230/34 7/203/34 15/207/34
f 47/222/34 55/226/34 120/229/34
f 47/222/34 120/229/34 118/231/34
f 102/232/34 101/230/34 15/207/34
f 125/233/34 102/232/34 15/207/34
f 47/222/34 118/231/34 127/234/34
f 47/222/34 127/234/34 111/235/34
f 109/236/34 125/233/34 15/207/34
f 110/237/34 109/236/34 15/207/34
f 47/222/34 111/235/34 113/238/34
f 39/218/34 47/222/34 113/238/34
f 110/237/34 15/207/34 23/211/34
f 107/239/34 110/237/34 23/211/34
f 39/218/34 113/238/34 112/240/34
f 39/218/34 112/240/34 115/241/34
f 108/242/34 107/239/34 23/211/34
f 105/243/34 108/242/34 23/211/34
f 39/218/34 115/241/34 114/244/34
f 39/218/34 114/244/34 117/245/34
f 106/246/34 105/243/34 23/211/34
f 106/246/34 23/211/34 31/72/34
f 31/72/34 39/218/34 117/245/34
f 31/72/34 117/245/34 116/247/34
f 104/74/34 106/246/34 31/72/34
f 31/72/34 116/247/34 126/73/34
f 121/248/34 124/227/34 55/226/34
f 55/226/34 57/249/34 59/250/34
f 59/250/34 61/251/34 63/75/34
f 63/75/34 1/252/34 3/253/34
f 3/253/34 5/254/34 7/203/34
f 7/203/34 103/202/34 98/255/34
f 7/203/34 98/255/34 99/256/34
f 63/75/34 3/253/34 7/203/34
f 55/226/34 59/250/34 63/75/34
f 123/257/34 121/248/34 55/226/34
f 123/257/34 55/226/34 63/75/34
f 63/75/34 7/203/34 99/256/34
f 63/75/34 99/256/34 97/258/34
f 122/77/34 123/257/34 63/75/34
f 63/75/34 97/258/34 128/76/34
usemtl 
f 70/78/17 97/79/17 99/80/17
f 96/81/18 99/80/18 98/82/18
f 86/83/19 98/82/19 103/84/19
f 88/85/20 103/84/20 100/86/20
f 88/85/21 101/87/21 87/88/21
f 87/88/22 102/89/22 92/90/22
f 92/90/23 125/91/23 91/92/23
f 91/92/24 109/93/24 89/94/24
f 89/94/25 110/95/25 90/96/25
f 90/96/26 107/97/26 95/98/26
f 95/98/27 108/99/27 84/100/27
f 82/101/28 108/99/28 105/102/28
f 82/101/29 106/103/29 83/104/29
f 83/104/30 104/105/30 85/106/30
f 85/106/32 126/107/32 80/108/32
f 80/108/33 116/109/33 81/110/33
f 81/110/1 117/111/1 79/112/1
f 79/112/2 114/113/2 94/114/2
f 94/114/3 115/115/3 76/116/3
f 76/116/4 112/117/4 77/118/4
f 75/119/5 112/117/5 113/120/5
f 78/121/6 113/120/6 111/122/6
f 74/123/7 111/122/7 127/124/7
f 72/125/8 127/124/8 118/126/8
f 73/127/9 118/126/9 120/128/9
f 93/129/10 120/128/10 119/130/10
f 65/131/11 119/130/11 124/132/11
f 121/133/12 65/131/12 124/132/12
f 66/134/13 121/133/13 123/135/13
f 69/136/14 123/135/14 122/137/14
f 68/138/15 122/137/15 128/139/15
f 71/140/16 128/139/16 97/141/16
f 70/78/17 71/259/17 97/79/17
f 96/81/18 70/78/18 99/80/18
f 86/83/19 96/81/19 98/82/19
f 88/85/20 86/83/20 103/84/20
f 88/85/21 100/86/21 101/87/21
f 87/88/22 101/87/22 102/89/22
f 92/90/23 102/89/23 125/91/23
f 91/92/24 125/91/24 109/93/24
f 89/94/25 109/93/25 110/95/25
f 90/96/26 110/95/26 107/97/26
f 95/98/27 107/97/27 108/99/27
f 82/101/28 84/100/28 108/99/28
f 82/101/29 105/102/29 106/103/29
f 83/104/30 106/103/30 104/105/30
f 85/106/32 104/105/32 126/107/32
f 80/108/33 126/107/33 116/109/33
f 81/110/1 116/109/1 117/111/1
f 79/112/2 117/111/2 114/113/2
f 94/114/3 114/113/3 115/115/3
f 76/116/4 115/115/4 112/117/4
f 75/119/5 77/118/5 112/117/5
f 78/121/6 75/119/6 113/120/6
f 74/123/7 78/121/7 111/122/7
f 72/125/8 74/123/8 127/124/8
f 73/127/9 72/125/9 118/126/9
f 93/129/10 73/127/10 120/128/10
f 65/131/11 93/129/11 119/130/11
f 121/133/12 67/260/12 65/131/12
f 66/134/13 67/260/13 121/133/13
f 69/136/14 66/134/14 123/135/14
f 68/138/15 69/136/15 122/137/15
f 71/140/16 68/138/16 128/139/16
